<svg width="81" height="80" viewBox="0 0 81 80" fill="none" xmlns="http://www.w3.org/2000/svg">
<circle cx="40.5" cy="40" r="40" fill="#FFF9EA"/>
<rect x="22" y="22" width="36" height="25.875" rx="5" fill="url(#paint0_linear_6419_110765)"/>
<rect x="26" y="26" width="28" height="18" rx="3" fill="white"/>
<rect x="22" y="50" width="36" height="5" rx="2.5" fill="#70A8FD"/>
<path fill-rule="evenodd" clip-rule="evenodd" d="M56.5164 30.3528C55.8747 29.4726 54.641 29.2792 53.7608 29.9208L52.3477 30.9509C52.3801 31.0543 52.4157 31.1632 52.4543 31.2765C52.7147 32.0388 53.104 32.9559 53.6298 33.6773C54.1557 34.3987 54.9097 35.05 55.5558 35.5311C55.6517 35.6026 55.7446 35.6698 55.833 35.7323L57.2461 34.7022C58.1264 34.0606 58.3198 32.8269 57.6782 31.9466L56.5164 30.3528ZM54.7467 36.5242C54.0654 36.0128 53.2179 35.2848 52.5957 34.4312C51.9734 33.5775 51.5397 32.5479 51.2614 31.7428L45.7043 35.7936C45.3594 36.0449 45.1054 36.4014 44.9804 36.8094L44.1134 39.638C43.9208 40.2665 44.3855 40.904 45.0428 40.913L48.001 40.9533C48.4277 40.9591 48.8448 40.8263 49.1896 40.575L54.7467 36.5242Z" fill="#2E5EA6"/>
<rect x="30" y="30" width="16" height="3" rx="1.5" fill="#DBE4EC"/>
<rect x="30" y="36" width="8" height="3" rx="1.5" fill="#DBE4EC"/>
<path fill-rule="evenodd" clip-rule="evenodd" d="M64 28C70.9036 28 76.5 22.4036 76.5 15.5C76.5 8.59644 70.9036 3 64 3C57.0964 3 51.5 8.59644 51.5 15.5C51.5 18.334 52.4431 20.9477 54.0326 23.0444C54.015 23.099 54.0017 23.1562 53.9931 23.216L53.515 26.5693C53.4064 27.3314 54.1635 27.9254 54.8778 27.6384L57.9117 26.4197C59.7133 27.4263 61.7896 28 64 28Z" fill="#3B4A65"/>
<path d="M63.2712 9.9645C63.3496 9.23556 64.0285 8.72519 64.7505 8.85251L65.8235 9.04172C66.5455 9.16903 67.009 9.88085 66.8333 10.5926L65.1905 17.2484C65.0308 17.8954 64.3971 18.308 63.7409 18.1922L63.5781 18.1635C62.9218 18.0478 62.4674 17.4434 62.5387 16.7808L63.2712 9.9645Z" fill="white"/>
<rect width="2.53314" height="2.53328" rx="1.26657" transform="matrix(0.984806 0.173658 -0.173638 0.98481 62.2215 19.0391)" fill="white"/>
<defs>
<linearGradient id="paint0_linear_6419_110765" x1="40" y1="22" x2="40" y2="47.875" gradientUnits="userSpaceOnUse">
<stop stop-color="#3D84ED"/>
<stop offset="1" stop-color="#83B5FE"/>
</linearGradient>
</defs>
</svg>
